# xmcd
# Track frame offsets:
# 150
# 13373
# 28112
# 40595
# 54010
# 66506
# 83818
# 97289
# 110593
# 128075
# 143423
# 155201
#
# Disc length: 2283 seconds
# Revision: 0
# Processed by: cddbd v1.4PL0 Copyright (c) Steve Scherf et al.
# Submitted via: VisiTrax 2.9.1.155 - For more info visit www.synapsa.com
#
DISCID=a308e90c
DTITLE=Percy Sledge - The Best Of Percy Sledge
DYEAR=1900
DGENRE=
TTITLE0=WHEN A MAN LOVES A WOMAN
TTITLE1=Warm and Tender Love
TTITLE2=It Tears Me Up
TTITLE3=Take Time To Know Her
TTITLE4=Cover Me Up
TTITLE5=Try A Little Tenderness
TTITLE6=My Special Prayer
TTITLE7=I've Been Loving You Too Long
TTITLE8=If Loving You is Wrong
TTITLE9=Out of Left Field
TTITLE10=Tell It Like It Is
TTITLE11=Just Out of Reach
EXTD=
EXTT0=
EXTT1=
EXTT2=
EXTT3=
EXTT4=
EXTT5=
EXTT6=
EXTT7=
EXTT8=
EXTT9=
EXTT10=
EXTT11=
PLAYORDER=
